<svg xmlns="http://www.w3.org/2000/svg" width="850" height="340" viewBox="0 0 850 340">
  <defs>
    <linearGradient id="areaFill" x1="0" y1="0" x2="0" y2="1">
      <stop offset="0%" stop-color="#58a6ff" stop-opacity="0.45"/>
      <stop offset="100%" stop-color="#58a6ff" stop-opacity="0"/>
    </linearGradient>
  </defs>

  <!-- Background -->
  <rect width="100%" height="100%" fill="#0d1117" rx="8"/>

  <!-- Title -->
  <text x="425" y="33" font-family="'Segoe UI', Arial, sans-serif" font-size="17" fill="#F2C811" text-anchor="middle" font-weight="bold">pbi-cli Downloads Over Time</text>
  <text x="425" y="52" font-family="'Segoe UI', Arial, sans-serif" font-size="11" fill="#8b949e" text-anchor="middle">Cumulative installs from PyPI • mirrors excluded • source: pypistats.org</text>

  <!-- Gridlines & y-labels -->
  <line x1="70" y1="280.0" x2="810" y2="280.0" stroke="#21262d" stroke-width="1" stroke-dasharray="2,3"/><line x1="70" y1="239.6" x2="810" y2="239.6" stroke="#21262d" stroke-width="1" stroke-dasharray="2,3"/><line x1="70" y1="199.2" x2="810" y2="199.2" stroke="#21262d" stroke-width="1" stroke-dasharray="2,3"/><line x1="70" y1="158.8" x2="810" y2="158.8" stroke="#21262d" stroke-width="1" stroke-dasharray="2,3"/><line x1="70" y1="118.4" x2="810" y2="118.4" stroke="#21262d" stroke-width="1" stroke-dasharray="2,3"/><line x1="70" y1="78.0" x2="810" y2="78.0" stroke="#21262d" stroke-width="1" stroke-dasharray="2,3"/>
  <text x="62" y="284.0" font-family="'Segoe UI', Arial, sans-serif" font-size="10" fill="#8b949e" text-anchor="end">0</text><text x="62" y="243.6" font-family="'Segoe UI', Arial, sans-serif" font-size="10" fill="#8b949e" text-anchor="end">10,000</text><text x="62" y="203.2" font-family="'Segoe UI', Arial, sans-serif" font-size="10" fill="#8b949e" text-anchor="end">20,000</text><text x="62" y="162.8" font-family="'Segoe UI', Arial, sans-serif" font-size="10" fill="#8b949e" text-anchor="end">30,000</text><text x="62" y="122.4" font-family="'Segoe UI', Arial, sans-serif" font-size="10" fill="#8b949e" text-anchor="end">40,000</text><text x="62" y="82.0" font-family="'Segoe UI', Arial, sans-serif" font-size="10" fill="#8b949e" text-anchor="end">50,000</text>

  <!-- Area fill -->
  <path d="M 70.00,280 L 70.00,279.98 L 74.09,279.84 L 78.18,279.77 L 82.27,279.64 L 86.35,279.33 L 90.44,278.69 L 94.53,278.33 L 98.62,277.16 L 102.71,276.34 L 106.80,273.90 L 110.88,272.92 L 114.97,272.33 L 119.06,271.75 L 123.15,271.60 L 127.24,271.24 L 131.33,270.68 L 135.41,269.77 L 139.50,269.44 L 143.59,268.96 L 147.68,268.49 L 151.77,268.33 L 155.86,268.15 L 159.94,267.56 L 164.03,267.18 L 168.12,266.65 L 172.21,266.27 L 176.30,266.05 L 180.39,265.78 L 184.48,265.43 L 188.56,265.03 L 192.65,264.53 L 196.74,264.03 L 200.83,263.56 L 204.92,263.11 L 209.01,262.96 L 213.09,262.33 L 217.18,261.44 L 221.27,260.40 L 225.36,259.09 L 229.45,256.45 L 233.54,254.69 L 237.62,253.74 L 241.71,252.94 L 245.80,250.75 L 249.89,248.90 L 253.98,247.18 L 258.07,245.24 L 262.15,243.70 L 266.24,242.80 L 270.33,241.50 L 274.42,240.19 L 278.51,237.89 L 282.60,236.07 L 286.69,233.86 L 290.77,232.37 L 294.86,231.35 L 298.95,230.55 L 303.04,229.78 L 307.13,228.16 L 311.22,226.45 L 315.30,224.86 L 319.39,223.68 L 323.48,223.10 L 327.57,222.41 L 331.66,221.06 L 335.75,219.97 L 339.83,218.53 L 343.92,217.30 L 348.01,216.08 L 352.10,214.89 L 356.19,214.41 L 360.28,213.53 L 364.36,212.13 L 368.45,211.15 L 372.54,209.35 L 376.63,207.99 L 380.72,206.96 L 384.81,205.96 L 388.90,204.57 L 392.98,203.06 L 397.07,201.48 L 401.16,198.66 L 405.25,197.73 L 409.34,197.17 L 413.43,196.42 L 417.51,194.77 L 421.60,193.46 L 425.69,192.24 L 429.78,191.12 L 433.87,189.96 L 437.96,189.66 L 442.04,188.91 L 446.13,188.07 L 450.22,186.15 L 454.31,185.14 L 458.40,183.99 L 462.49,183.52 L 466.57,183.11 L 470.66,182.80 L 474.75,181.84 L 478.84,180.34 L 482.93,179.08 L 487.02,178.20 L 491.10,177.50 L 495.19,177.15 L 499.28,176.93 L 503.37,176.03 L 507.46,175.10 L 511.55,174.27 L 515.64,173.08 L 519.72,172.76 L 523.81,172.53 L 527.90,172.33 L 531.99,171.43 L 536.08,170.15 L 540.17,169.02 L 544.25,168.00 L 548.34,167.35 L 552.43,167.02 L 556.52,166.52 L 560.61,165.90 L 564.70,165.24 L 568.78,164.61 L 572.87,163.74 L 576.96,163.52 L 581.05,163.16 L 585.14,163.05 L 589.23,162.44 L 593.31,161.82 L 597.40,160.88 L 601.49,160.06 L 605.58,159.76 L 609.67,159.47 L 613.76,159.28 L 617.85,158.69 L 621.93,158.03 L 626.02,157.34 L 630.11,156.68 L 634.20,156.28 L 638.29,155.98 L 642.38,155.91 L 646.46,155.40 L 650.55,155.05 L 654.64,154.36 L 658.73,153.61 L 662.82,153.17 L 666.91,152.87 L 670.99,152.40 L 675.08,151.92 L 679.17,151.76 L 683.26,151.64 L 687.35,151.55 L 691.44,151.46 L 695.52,151.43 L 699.61,151.38 L 703.70,151.31 L 707.79,151.13 L 711.88,151.04 L 715.97,150.89 L 720.06,150.78 L 724.14,150.68 L 728.23,150.62 L 732.32,150.53 L 736.41,150.36 L 740.50,150.20 L 744.59,150.11 L 748.67,149.97 L 752.76,149.88 L 756.85,149.78 L 760.94,149.68 L 765.03,149.56 L 769.12,149.46 L 773.20,149.36 L 777.29,148.50 L 781.38,148.43 L 785.47,148.30 L 789.56,148.15 L 793.65,147.98 L 797.73,147.84 L 801.82,147.67 L 805.91,147.57 L 810.00,147.55 L 810.00,280 Z" fill="url(#areaFill)"/>

  <!-- Line -->
  <path d="M 70.00,279.98 L 74.09,279.84 L 78.18,279.77 L 82.27,279.64 L 86.35,279.33 L 90.44,278.69 L 94.53,278.33 L 98.62,277.16 L 102.71,276.34 L 106.80,273.90 L 110.88,272.92 L 114.97,272.33 L 119.06,271.75 L 123.15,271.60 L 127.24,271.24 L 131.33,270.68 L 135.41,269.77 L 139.50,269.44 L 143.59,268.96 L 147.68,268.49 L 151.77,268.33 L 155.86,268.15 L 159.94,267.56 L 164.03,267.18 L 168.12,266.65 L 172.21,266.27 L 176.30,266.05 L 180.39,265.78 L 184.48,265.43 L 188.56,265.03 L 192.65,264.53 L 196.74,264.03 L 200.83,263.56 L 204.92,263.11 L 209.01,262.96 L 213.09,262.33 L 217.18,261.44 L 221.27,260.40 L 225.36,259.09 L 229.45,256.45 L 233.54,254.69 L 237.62,253.74 L 241.71,252.94 L 245.80,250.75 L 249.89,248.90 L 253.98,247.18 L 258.07,245.24 L 262.15,243.70 L 266.24,242.80 L 270.33,241.50 L 274.42,240.19 L 278.51,237.89 L 282.60,236.07 L 286.69,233.86 L 290.77,232.37 L 294.86,231.35 L 298.95,230.55 L 303.04,229.78 L 307.13,228.16 L 311.22,226.45 L 315.30,224.86 L 319.39,223.68 L 323.48,223.10 L 327.57,222.41 L 331.66,221.06 L 335.75,219.97 L 339.83,218.53 L 343.92,217.30 L 348.01,216.08 L 352.10,214.89 L 356.19,214.41 L 360.28,213.53 L 364.36,212.13 L 368.45,211.15 L 372.54,209.35 L 376.63,207.99 L 380.72,206.96 L 384.81,205.96 L 388.90,204.57 L 392.98,203.06 L 397.07,201.48 L 401.16,198.66 L 405.25,197.73 L 409.34,197.17 L 413.43,196.42 L 417.51,194.77 L 421.60,193.46 L 425.69,192.24 L 429.78,191.12 L 433.87,189.96 L 437.96,189.66 L 442.04,188.91 L 446.13,188.07 L 450.22,186.15 L 454.31,185.14 L 458.40,183.99 L 462.49,183.52 L 466.57,183.11 L 470.66,182.80 L 474.75,181.84 L 478.84,180.34 L 482.93,179.08 L 487.02,178.20 L 491.10,177.50 L 495.19,177.15 L 499.28,176.93 L 503.37,176.03 L 507.46,175.10 L 511.55,174.27 L 515.64,173.08 L 519.72,172.76 L 523.81,172.53 L 527.90,172.33 L 531.99,171.43 L 536.08,170.15 L 540.17,169.02 L 544.25,168.00 L 548.34,167.35 L 552.43,167.02 L 556.52,166.52 L 560.61,165.90 L 564.70,165.24 L 568.78,164.61 L 572.87,163.74 L 576.96,163.52 L 581.05,163.16 L 585.14,163.05 L 589.23,162.44 L 593.31,161.82 L 597.40,160.88 L 601.49,160.06 L 605.58,159.76 L 609.67,159.47 L 613.76,159.28 L 617.85,158.69 L 621.93,158.03 L 626.02,157.34 L 630.11,156.68 L 634.20,156.28 L 638.29,155.98 L 642.38,155.91 L 646.46,155.40 L 650.55,155.05 L 654.64,154.36 L 658.73,153.61 L 662.82,153.17 L 666.91,152.87 L 670.99,152.40 L 675.08,151.92 L 679.17,151.76 L 683.26,151.64 L 687.35,151.55 L 691.44,151.46 L 695.52,151.43 L 699.61,151.38 L 703.70,151.31 L 707.79,151.13 L 711.88,151.04 L 715.97,150.89 L 720.06,150.78 L 724.14,150.68 L 728.23,150.62 L 732.32,150.53 L 736.41,150.36 L 740.50,150.20 L 744.59,150.11 L 748.67,149.97 L 752.76,149.88 L 756.85,149.78 L 760.94,149.68 L 765.03,149.56 L 769.12,149.46 L 773.20,149.36 L 777.29,148.50 L 781.38,148.43 L 785.47,148.30 L 789.56,148.15 L 793.65,147.98 L 797.73,147.84 L 801.82,147.67 L 805.91,147.57 L 810.00,147.55" fill="none" stroke="#58a6ff" stroke-width="2.5" stroke-linejoin="round" stroke-linecap="round"/>

  <!-- Data points -->
  <circle cx="70.00" cy="279.98" r="2.5" fill="#58a6ff"/><circle cx="74.09" cy="279.84" r="2.5" fill="#58a6ff"/><circle cx="78.18" cy="279.77" r="2.5" fill="#58a6ff"/><circle cx="82.27" cy="279.64" r="2.5" fill="#58a6ff"/><circle cx="86.35" cy="279.33" r="2.5" fill="#58a6ff"/><circle cx="90.44" cy="278.69" r="2.5" fill="#58a6ff"/><circle cx="94.53" cy="278.33" r="2.5" fill="#58a6ff"/><circle cx="98.62" cy="277.16" r="2.5" fill="#58a6ff"/><circle cx="102.71" cy="276.34" r="2.5" fill="#58a6ff"/><circle cx="106.80" cy="273.90" r="2.5" fill="#58a6ff"/><circle cx="110.88" cy="272.92" r="2.5" fill="#58a6ff"/><circle cx="114.97" cy="272.33" r="2.5" fill="#58a6ff"/><circle cx="119.06" cy="271.75" r="2.5" fill="#58a6ff"/><circle cx="123.15" cy="271.60" r="2.5" fill="#58a6ff"/><circle cx="127.24" cy="271.24" r="2.5" fill="#58a6ff"/><circle cx="131.33" cy="270.68" r="2.5" fill="#58a6ff"/><circle cx="135.41" cy="269.77" r="2.5" fill="#58a6ff"/><circle cx="139.50" cy="269.44" r="2.5" fill="#58a6ff"/><circle cx="143.59" cy="268.96" r="2.5" fill="#58a6ff"/><circle cx="147.68" cy="268.49" r="2.5" fill="#58a6ff"/><circle cx="151.77" cy="268.33" r="2.5" fill="#58a6ff"/><circle cx="155.86" cy="268.15" r="2.5" fill="#58a6ff"/><circle cx="159.94" cy="267.56" r="2.5" fill="#58a6ff"/><circle cx="164.03" cy="267.18" r="2.5" fill="#58a6ff"/><circle cx="168.12" cy="266.65" r="2.5" fill="#58a6ff"/><circle cx="172.21" cy="266.27" r="2.5" fill="#58a6ff"/><circle cx="176.30" cy="266.05" r="2.5" fill="#58a6ff"/><circle cx="180.39" cy="265.78" r="2.5" fill="#58a6ff"/><circle cx="184.48" cy="265.43" r="2.5" fill="#58a6ff"/><circle cx="188.56" cy="265.03" r="2.5" fill="#58a6ff"/><circle cx="192.65" cy="264.53" r="2.5" fill="#58a6ff"/><circle cx="196.74" cy="264.03" r="2.5" fill="#58a6ff"/><circle cx="200.83" cy="263.56" r="2.5" fill="#58a6ff"/><circle cx="204.92" cy="263.11" r="2.5" fill="#58a6ff"/><circle cx="209.01" cy="262.96" r="2.5" fill="#58a6ff"/><circle cx="213.09" cy="262.33" r="2.5" fill="#58a6ff"/><circle cx="217.18" cy="261.44" r="2.5" fill="#58a6ff"/><circle cx="221.27" cy="260.40" r="2.5" fill="#58a6ff"/><circle cx="225.36" cy="259.09" r="2.5" fill="#58a6ff"/><circle cx="229.45" cy="256.45" r="2.5" fill="#58a6ff"/><circle cx="233.54" cy="254.69" r="2.5" fill="#58a6ff"/><circle cx="237.62" cy="253.74" r="2.5" fill="#58a6ff"/><circle cx="241.71" cy="252.94" r="2.5" fill="#58a6ff"/><circle cx="245.80" cy="250.75" r="2.5" fill="#58a6ff"/><circle cx="249.89" cy="248.90" r="2.5" fill="#58a6ff"/><circle cx="253.98" cy="247.18" r="2.5" fill="#58a6ff"/><circle cx="258.07" cy="245.24" r="2.5" fill="#58a6ff"/><circle cx="262.15" cy="243.70" r="2.5" fill="#58a6ff"/><circle cx="266.24" cy="242.80" r="2.5" fill="#58a6ff"/><circle cx="270.33" cy="241.50" r="2.5" fill="#58a6ff"/><circle cx="274.42" cy="240.19" r="2.5" fill="#58a6ff"/><circle cx="278.51" cy="237.89" r="2.5" fill="#58a6ff"/><circle cx="282.60" cy="236.07" r="2.5" fill="#58a6ff"/><circle cx="286.69" cy="233.86" r="2.5" fill="#58a6ff"/><circle cx="290.77" cy="232.37" r="2.5" fill="#58a6ff"/><circle cx="294.86" cy="231.35" r="2.5" fill="#58a6ff"/><circle cx="298.95" cy="230.55" r="2.5" fill="#58a6ff"/><circle cx="303.04" cy="229.78" r="2.5" fill="#58a6ff"/><circle cx="307.13" cy="228.16" r="2.5" fill="#58a6ff"/><circle cx="311.22" cy="226.45" r="2.5" fill="#58a6ff"/><circle cx="315.30" cy="224.86" r="2.5" fill="#58a6ff"/><circle cx="319.39" cy="223.68" r="2.5" fill="#58a6ff"/><circle cx="323.48" cy="223.10" r="2.5" fill="#58a6ff"/><circle cx="327.57" cy="222.41" r="2.5" fill="#58a6ff"/><circle cx="331.66" cy="221.06" r="2.5" fill="#58a6ff"/><circle cx="335.75" cy="219.97" r="2.5" fill="#58a6ff"/><circle cx="339.83" cy="218.53" r="2.5" fill="#58a6ff"/><circle cx="343.92" cy="217.30" r="2.5" fill="#58a6ff"/><circle cx="348.01" cy="216.08" r="2.5" fill="#58a6ff"/><circle cx="352.10" cy="214.89" r="2.5" fill="#58a6ff"/><circle cx="356.19" cy="214.41" r="2.5" fill="#58a6ff"/><circle cx="360.28" cy="213.53" r="2.5" fill="#58a6ff"/><circle cx="364.36" cy="212.13" r="2.5" fill="#58a6ff"/><circle cx="368.45" cy="211.15" r="2.5" fill="#58a6ff"/><circle cx="372.54" cy="209.35" r="2.5" fill="#58a6ff"/><circle cx="376.63" cy="207.99" r="2.5" fill="#58a6ff"/><circle cx="380.72" cy="206.96" r="2.5" fill="#58a6ff"/><circle cx="384.81" cy="205.96" r="2.5" fill="#58a6ff"/><circle cx="388.90" cy="204.57" r="2.5" fill="#58a6ff"/><circle cx="392.98" cy="203.06" r="2.5" fill="#58a6ff"/><circle cx="397.07" cy="201.48" r="2.5" fill="#58a6ff"/><circle cx="401.16" cy="198.66" r="2.5" fill="#58a6ff"/><circle cx="405.25" cy="197.73" r="2.5" fill="#58a6ff"/><circle cx="409.34" cy="197.17" r="2.5" fill="#58a6ff"/><circle cx="413.43" cy="196.42" r="2.5" fill="#58a6ff"/><circle cx="417.51" cy="194.77" r="2.5" fill="#58a6ff"/><circle cx="421.60" cy="193.46" r="2.5" fill="#58a6ff"/><circle cx="425.69" cy="192.24" r="2.5" fill="#58a6ff"/><circle cx="429.78" cy="191.12" r="2.5" fill="#58a6ff"/><circle cx="433.87" cy="189.96" r="2.5" fill="#58a6ff"/><circle cx="437.96" cy="189.66" r="2.5" fill="#58a6ff"/><circle cx="442.04" cy="188.91" r="2.5" fill="#58a6ff"/><circle cx="446.13" cy="188.07" r="2.5" fill="#58a6ff"/><circle cx="450.22" cy="186.15" r="2.5" fill="#58a6ff"/><circle cx="454.31" cy="185.14" r="2.5" fill="#58a6ff"/><circle cx="458.40" cy="183.99" r="2.5" fill="#58a6ff"/><circle cx="462.49" cy="183.52" r="2.5" fill="#58a6ff"/><circle cx="466.57" cy="183.11" r="2.5" fill="#58a6ff"/><circle cx="470.66" cy="182.80" r="2.5" fill="#58a6ff"/><circle cx="474.75" cy="181.84" r="2.5" fill="#58a6ff"/><circle cx="478.84" cy="180.34" r="2.5" fill="#58a6ff"/><circle cx="482.93" cy="179.08" r="2.5" fill="#58a6ff"/><circle cx="487.02" cy="178.20" r="2.5" fill="#58a6ff"/><circle cx="491.10" cy="177.50" r="2.5" fill="#58a6ff"/><circle cx="495.19" cy="177.15" r="2.5" fill="#58a6ff"/><circle cx="499.28" cy="176.93" r="2.5" fill="#58a6ff"/><circle cx="503.37" cy="176.03" r="2.5" fill="#58a6ff"/><circle cx="507.46" cy="175.10" r="2.5" fill="#58a6ff"/><circle cx="511.55" cy="174.27" r="2.5" fill="#58a6ff"/><circle cx="515.64" cy="173.08" r="2.5" fill="#58a6ff"/><circle cx="519.72" cy="172.76" r="2.5" fill="#58a6ff"/><circle cx="523.81" cy="172.53" r="2.5" fill="#58a6ff"/><circle cx="527.90" cy="172.33" r="2.5" fill="#58a6ff"/><circle cx="531.99" cy="171.43" r="2.5" fill="#58a6ff"/><circle cx="536.08" cy="170.15" r="2.5" fill="#58a6ff"/><circle cx="540.17" cy="169.02" r="2.5" fill="#58a6ff"/><circle cx="544.25" cy="168.00" r="2.5" fill="#58a6ff"/><circle cx="548.34" cy="167.35" r="2.5" fill="#58a6ff"/><circle cx="552.43" cy="167.02" r="2.5" fill="#58a6ff"/><circle cx="556.52" cy="166.52" r="2.5" fill="#58a6ff"/><circle cx="560.61" cy="165.90" r="2.5" fill="#58a6ff"/><circle cx="564.70" cy="165.24" r="2.5" fill="#58a6ff"/><circle cx="568.78" cy="164.61" r="2.5" fill="#58a6ff"/><circle cx="572.87" cy="163.74" r="2.5" fill="#58a6ff"/><circle cx="576.96" cy="163.52" r="2.5" fill="#58a6ff"/><circle cx="581.05" cy="163.16" r="2.5" fill="#58a6ff"/><circle cx="585.14" cy="163.05" r="2.5" fill="#58a6ff"/><circle cx="589.23" cy="162.44" r="2.5" fill="#58a6ff"/><circle cx="593.31" cy="161.82" r="2.5" fill="#58a6ff"/><circle cx="597.40" cy="160.88" r="2.5" fill="#58a6ff"/><circle cx="601.49" cy="160.06" r="2.5" fill="#58a6ff"/><circle cx="605.58" cy="159.76" r="2.5" fill="#58a6ff"/><circle cx="609.67" cy="159.47" r="2.5" fill="#58a6ff"/><circle cx="613.76" cy="159.28" r="2.5" fill="#58a6ff"/><circle cx="617.85" cy="158.69" r="2.5" fill="#58a6ff"/><circle cx="621.93" cy="158.03" r="2.5" fill="#58a6ff"/><circle cx="626.02" cy="157.34" r="2.5" fill="#58a6ff"/><circle cx="630.11" cy="156.68" r="2.5" fill="#58a6ff"/><circle cx="634.20" cy="156.28" r="2.5" fill="#58a6ff"/><circle cx="638.29" cy="155.98" r="2.5" fill="#58a6ff"/><circle cx="642.38" cy="155.91" r="2.5" fill="#58a6ff"/><circle cx="646.46" cy="155.40" r="2.5" fill="#58a6ff"/><circle cx="650.55" cy="155.05" r="2.5" fill="#58a6ff"/><circle cx="654.64" cy="154.36" r="2.5" fill="#58a6ff"/><circle cx="658.73" cy="153.61" r="2.5" fill="#58a6ff"/><circle cx="662.82" cy="153.17" r="2.5" fill="#58a6ff"/><circle cx="666.91" cy="152.87" r="2.5" fill="#58a6ff"/><circle cx="670.99" cy="152.40" r="2.5" fill="#58a6ff"/><circle cx="675.08" cy="151.92" r="2.5" fill="#58a6ff"/><circle cx="679.17" cy="151.76" r="2.5" fill="#58a6ff"/><circle cx="683.26" cy="151.64" r="2.5" fill="#58a6ff"/><circle cx="687.35" cy="151.55" r="2.5" fill="#58a6ff"/><circle cx="691.44" cy="151.46" r="2.5" fill="#58a6ff"/><circle cx="695.52" cy="151.43" r="2.5" fill="#58a6ff"/><circle cx="699.61" cy="151.38" r="2.5" fill="#58a6ff"/><circle cx="703.70" cy="151.31" r="2.5" fill="#58a6ff"/><circle cx="707.79" cy="151.13" r="2.5" fill="#58a6ff"/><circle cx="711.88" cy="151.04" r="2.5" fill="#58a6ff"/><circle cx="715.97" cy="150.89" r="2.5" fill="#58a6ff"/><circle cx="720.06" cy="150.78" r="2.5" fill="#58a6ff"/><circle cx="724.14" cy="150.68" r="2.5" fill="#58a6ff"/><circle cx="728.23" cy="150.62" r="2.5" fill="#58a6ff"/><circle cx="732.32" cy="150.53" r="2.5" fill="#58a6ff"/><circle cx="736.41" cy="150.36" r="2.5" fill="#58a6ff"/><circle cx="740.50" cy="150.20" r="2.5" fill="#58a6ff"/><circle cx="744.59" cy="150.11" r="2.5" fill="#58a6ff"/><circle cx="748.67" cy="149.97" r="2.5" fill="#58a6ff"/><circle cx="752.76" cy="149.88" r="2.5" fill="#58a6ff"/><circle cx="756.85" cy="149.78" r="2.5" fill="#58a6ff"/><circle cx="760.94" cy="149.68" r="2.5" fill="#58a6ff"/><circle cx="765.03" cy="149.56" r="2.5" fill="#58a6ff"/><circle cx="769.12" cy="149.46" r="2.5" fill="#58a6ff"/><circle cx="773.20" cy="149.36" r="2.5" fill="#58a6ff"/><circle cx="777.29" cy="148.50" r="2.5" fill="#58a6ff"/><circle cx="781.38" cy="148.43" r="2.5" fill="#58a6ff"/><circle cx="785.47" cy="148.30" r="2.5" fill="#58a6ff"/><circle cx="789.56" cy="148.15" r="2.5" fill="#58a6ff"/><circle cx="793.65" cy="147.98" r="2.5" fill="#58a6ff"/><circle cx="797.73" cy="147.84" r="2.5" fill="#58a6ff"/><circle cx="801.82" cy="147.67" r="2.5" fill="#58a6ff"/><circle cx="805.91" cy="147.57" r="2.5" fill="#58a6ff"/><circle cx="810.00" cy="147.55" r="4" fill="#F2C811"/>

  <!-- Last-value callout -->
  <rect x="720.0" y="119.6" width="82" height="24" rx="4" fill="#0d1a2a" stroke="#F2C811" stroke-width="1"/>
  <text x="761.0" y="135.6" font-family="'Segoe UI', Arial, sans-serif" font-size="12" fill="#F2C811" text-anchor="middle" font-weight="bold">32,784 total</text>

  <!-- X-axis labels -->
  <text x="70.0" y="298" font-family="'Segoe UI', Arial, sans-serif" font-size="10" fill="#8b949e" text-anchor="middle">Mar 29</text><text x="254.0" y="298" font-family="'Segoe UI', Arial, sans-serif" font-size="10" fill="#8b949e" text-anchor="middle">May 13</text><text x="442.0" y="298" font-family="'Segoe UI', Arial, sans-serif" font-size="10" fill="#8b949e" text-anchor="middle">Jun 28</text><text x="626.0" y="298" font-family="'Segoe UI', Arial, sans-serif" font-size="10" fill="#8b949e" text-anchor="middle">Aug 12</text><text x="810.0" y="298" font-family="'Segoe UI', Arial, sans-serif" font-size="10" fill="#8b949e" text-anchor="middle">Sep 26</text>

  <!-- Footer: date range -->
  <text x="70" y="328" font-family="'Segoe UI', Arial, sans-serif" font-size="10" fill="#8b949e">Mar 29, 2026 → Sep 26, 2026</text>
  <text x="810" y="328" font-family="'Segoe UI', Arial, sans-serif" font-size="10" fill="#8b949e" text-anchor="end">182 days of data</text>
</svg>
